<?xml version="1.0" standalone="no"?>
<!DOCTYPE svg PUBLIC "-//W3C//DTD SVG 20010904//EN"
 "http://www.w3.org/TR/2001/REC-SVG-20010904/DTD/svg10.dtd">
<svg version="1.0" xmlns="http://www.w3.org/2000/svg"
 width="816.000000pt" height="816.000000pt" viewBox="0 0 816.000000 816.000000"
 preserveAspectRatio="xMidYMid meet">
<metadata>
Created by potrace 1.11, written by Peter Selinger 2001-2013
</metadata>
<g transform="translate(0.000000,816.000000) scale(0.100000,-0.100000)"
fill="#000000" stroke="none">
<path d="M3732 6394 c2 -16 10 -20 42 -21 23 0 55 -4 71 -7 29 -6 82 -18 98
-22 4 -1 16 -2 28 -3 11 0 18 -5 15 -10 -3 -4 6 -6 19 -3 14 2 25 0 25 -5 0
-5 6 -10 14 -10 27 0 106 -26 106 -35 0 -5 4 -7 9 -4 5 3 22 -1 37 -9 16 -8
35 -15 42 -15 6 0 12 -5 12 -12 0 -6 3 -8 6 -5 4 3 16 1 28 -5 11 -7 24 -11
29 -10 4 1 7 -3 7 -10 0 -6 3 -8 6 -5 4 4 19 -2 34 -13 16 -11 33 -20 39 -20
6 0 11 -5 11 -11 0 -5 5 -7 10 -4 6 3 10 3 10 -2 0 -4 23 -21 50 -36 28 -16
50 -32 50 -38 0 -5 7 -9 15 -9 8 0 15 -4 15 -10 0 -5 7 -10 15 -10 8 0 15 -7
15 -15 0 -8 5 -15 11 -15 12 0 139 -120 139 -132 0 -4 10 -18 23 -32 35 -39
47 -55 47 -64 0 -5 7 -15 15 -22 17 -14 88 -156 88 -176 0 -8 4 -14 8 -14 5 0
30 -80 34 -110 0 -3 3 -9 6 -15 3 -5 6 -26 8 -45 2 -19 7 -40 12 -47 7 -7 6
-13 0 -17 -6 -4 -7 -16 -2 -29 4 -12 6 -69 4 -127 -2 -58 -4 -113 -4 -122 0
-10 -4 -18 -8 -18 -5 0 -7 -11 -6 -25 2 -14 0 -25 -3 -25 -4 0 -7 -10 -8 -22
-2 -55 -34 -137 -67 -174 -25 -28 -34 -41 -70 -111 -21 -40 -35 -73 -31 -73 5
0 3 -5 -4 -12 -7 -7 -12 -20 -12 -31 0 -10 -4 -16 -10 -12 -5 3 -8 -7 -5 -25
2 -16 0 -30 -4 -30 -11 0 -5 -145 9 -197 13 -45 56 -124 73 -131 4 -2 4 -9 1
-14 -4 -6 -3 -8 3 -5 5 3 20 -7 33 -24 14 -16 30 -29 37 -29 7 0 13 -3 13 -8
0 -7 103 -55 125 -58 6 -1 12 -3 15 -4 30 -11 170 -20 170 -11 0 4 16 6 35 6
19 -1 35 1 35 5 0 4 6 7 13 8 27 1 60 12 73 23 8 6 14 8 14 5 0 -4 13 2 29 13
16 12 34 21 40 21 6 0 11 5 11 12 0 6 3 9 6 5 3 -3 13 2 23 11 10 10 31 29 47
43 55 49 134 148 134 169 0 5 3 10 8 10 4 0 15 20 25 45 11 25 23 45 29 45 5
0 7 3 5 8 -3 4 3 24 13 45 10 20 14 35 9 32 -5 -4 -6 1 -3 9 3 9 9 16 13 16 4
0 7 8 7 18 0 9 4 40 9 67 7 44 14 101 16 130 1 28 -11 196 -15 204 -6 9 -16
63 -20 108 -2 18 -8 39 -15 46 -6 8 -8 17 -4 20 3 4 0 13 -7 22 -7 8 -10 22
-6 30 3 9 2 13 -4 10 -6 -3 -10 2 -10 12 0 11 -6 25 -12 32 -10 11 -10 12 -1
7 9 -5 11 -2 7 8 -3 9 -10 16 -15 16 -5 0 -9 9 -9 20 0 21 -19 60 -33 71 -5 3
-8 9 -7 13 3 10 -17 57 -39 91 -10 17 -16 33 -14 38 2 4 0 7 -5 7 -5 0 -17 18
-28 40 -10 22 -22 40 -26 40 -5 0 -8 7 -8 16 0 8 -4 12 -10 9 -5 -3 -10 1 -10
11 0 9 -10 25 -22 35 -11 11 -18 19 -14 19 4 0 1 6 -6 14 -7 8 -23 27 -35 43
-12 15 -44 53 -72 83 -28 30 -50 58 -51 63 0 4 -4 7 -9 7 -5 0 -25 15 -43 33
-58 54 -98 87 -98 81 0 -4 -9 3 -20 16 -11 13 -20 19 -20 14 0 -5 -4 -4 -8 2
-17 26 -214 134 -244 134 -10 0 -18 5 -18 11 0 5 -4 7 -10 4 -5 -3 -10 -1 -10
5 0 6 -4 9 -9 5 -6 -3 -25 3 -43 13 -18 10 -53 24 -78 32 -25 7 -50 17 -56 22
-6 4 -19 9 -30 12 -59 12 -84 19 -84 25 0 3 -16 7 -36 9 -20 1 -41 5 -48 9
-12 8 -27 11 -68 15 -16 1 -28 5 -28 9 0 3 -21 7 -47 8 -26 1 -51 7 -55 14 -6
9 -8 9 -8 -1 0 -7 -5 -10 -11 -6 -12 7 -41 11 -116 15 -24 2 -43 8 -43 13 0 7
-3 8 -8 1 -6 -9 -26 -11 -42 -5 -25 9 -50 8 -44 -2 5 -8 3 -8 -7 -2 -20 13
-120 14 -112 1 4 -6 1 -7 -8 -1 -17 11 -109 12 -103 2 8 -12 -11 -9 -23 3 -9
9 -12 7 -11 -7z"/>
<path d="M3325 6182 c-3 -3 -25 -7 -48 -8 -23 0 -69 -5 -102 -9 -33 -4 -68 -8
-77 -9 -10 0 -18 -3 -18 -7 0 -3 -13 -5 -30 -4 -16 1 -30 -3 -30 -8 0 -5 -9
-7 -20 -4 -11 3 -20 2 -20 -2 0 -4 -8 -7 -17 -8 -10 -1 -39 -9 -66 -18 -26 -9
-51 -14 -56 -11 -5 3 -14 -1 -21 -9 -7 -8 -19 -15 -27 -15 -8 0 -33 -9 -55
-20 -23 -11 -47 -20 -54 -20 -7 0 -20 -7 -28 -16 -9 -8 -20 -12 -26 -9 -5 3
-10 2 -10 -4 0 -5 -16 -15 -35 -22 -19 -7 -35 -17 -35 -21 0 -4 -7 -8 -15 -8
-8 0 -15 -4 -15 -9 0 -5 -8 -12 -17 -15 -69 -25 -246 -176 -328 -281 -17 -21
-35 -43 -40 -49 -6 -6 -34 -40 -63 -76 -29 -36 -57 -71 -62 -77 -6 -7 -15 -24
-20 -38 -5 -14 -14 -25 -20 -25 -5 0 -10 -7 -10 -15 0 -8 -4 -15 -9 -15 -5 0
-14 -13 -21 -30 -7 -16 -17 -30 -22 -30 -5 0 -6 -4 -3 -10 3 -5 3 -10 -2 -10
-4 0 -15 -15 -22 -32 -8 -18 -28 -55 -44 -83 -16 -27 -29 -51 -28 -52 0 -2
-11 -29 -26 -60 -15 -32 -26 -62 -25 -66 1 -4 -3 -18 -10 -30 -7 -12 -13 -24
-13 -27 -1 -3 -7 -18 -13 -33 -7 -16 -12 -35 -12 -43 0 -8 -4 -14 -8 -14 -4 0
-9 -8 -10 -17 -2 -19 -9 -54 -12 -63 -1 -3 -2 -8 -1 -12 0 -5 -3 -8 -9 -8 -5
0 -10 -11 -10 -24 0 -14 -4 -35 -9 -49 -6 -14 -6 -29 0 -38 7 -11 9 -10 10 6
1 11 1 23 0 28 0 4 3 7 7 7 5 0 16 19 27 42 22 49 76 140 90 150 5 4 6 8 2 8
-5 0 -2 7 5 15 29 33 38 45 33 45 -4 0 0 6 7 13 7 8 27 31 43 52 17 22 40 49
51 61 12 13 21 24 19 26 -1 2 26 31 61 65 35 34 64 60 64 57 0 -2 14 10 30 26
17 17 35 30 41 30 6 0 7 5 4 10 -3 6 -2 10 3 10 5 0 40 21 78 46 103 70 313
164 347 156 4 -1 7 1 7 6 0 4 17 8 38 10 57 3 62 5 62 16 0 6 5 4 10 -4 5 -8
10 -10 10 -5 0 6 46 11 115 12 74 1 115 -2 115 -9 0 -7 5 -6 14 1 9 8 16 8 20
2 4 -6 13 -8 21 -4 9 3 15 -1 15 -8 0 -11 3 -11 11 1 7 11 12 12 15 3 3 -7 12
-9 20 -6 8 3 14 1 14 -4 0 -5 14 -10 31 -11 18 -1 37 -6 43 -9 6 -4 18 -8 26
-10 8 -1 23 -6 35 -11 84 -40 121 -56 128 -54 4 1 7 -2 7 -6 0 -5 12 -14 28
-21 28 -13 103 -61 112 -72 3 -4 14 -19 25 -34 11 -14 28 -36 38 -47 9 -12 17
-25 17 -30 0 -5 5 -6 10 -3 6 3 10 1 10 -5 0 -15 111 -120 126 -120 7 0 15 -7
18 -16 3 -8 10 -13 15 -9 6 3 14 -3 20 -12 8 -14 10 -15 11 -3 0 13 1 13 10 0
5 -8 13 -15 17 -16 4 0 15 -3 23 -7 31 -12 86 -24 108 -22 12 1 22 -2 22 -7 0
-5 6 -6 12 -2 7 5 26 9 43 10 49 4 89 14 96 25 3 6 10 10 15 10 17 -1 44 10
44 19 0 5 9 12 20 15 25 8 110 94 110 112 0 7 4 13 8 13 9 0 48 81 44 93 -1 4
3 7 9 7 5 0 7 5 4 10 -3 6 -3 10 2 10 9 0 10 10 17 133 3 55 1 77 -7 77 -8 0
-8 3 -2 8 11 8 16 42 6 42 -6 0 -10 17 -13 58 -1 6 -6 12 -11 12 -5 0 -7 7 -3
15 3 8 1 15 -4 15 -6 0 -9 3 -8 8 1 4 -3 17 -10 28 -6 12 -8 24 -5 28 3 3 1 6
-5 6 -6 0 -16 16 -23 34 -7 19 -16 33 -21 30 -7 -5 -12 10 -9 29 0 4 -5 7 -13
7 -8 0 -17 11 -20 24 -3 14 -15 28 -26 31 -11 4 -19 9 -17 13 2 4 -18 28 -45
53 -26 25 -48 43 -48 40 0 -3 -4 -1 -8 4 -14 19 -95 79 -88 64 4 -8 0 -5 -8 5
-9 11 -16 17 -16 13 0 -4 -21 5 -47 20 -27 15 -49 26 -50 25 -3 -2 -23 4 -50
15 -10 3 -21 7 -25 8 -5 2 -9 3 -10 5 -3 2 -13 4 -73 15 -46 8 -70 13 -70 15
0 3 -43 8 -100 12 -28 2 -57 8 -64 13 -9 5 -12 4 -7 -3 4 -7 -1 -10 -14 -9
-11 1 -20 5 -20 9 0 4 -10 4 -22 -1 -13 -4 -35 -5 -50 -1 -14 5 -29 5 -33 2z"/>
<path d="M2510 4957 c0 -5 -3 -6 -8 -3 -4 2 -27 0 -52 -5 -25 -5 -58 -12 -75
-15 -16 -3 -33 -11 -37 -17 -4 -7 -8 -8 -8 -3 0 5 -6 4 -12 -2 -7 -6 -17 -11
-23 -12 -22 -5 -42 -14 -69 -34 -19 -13 -27 -15 -22 -5 4 7 0 5 -8 -5 -9 -11
-16 -16 -16 -11 0 5 -11 -2 -25 -15 -14 -13 -25 -20 -25 -16 0 3 -13 -7 -30
-24 -16 -17 -30 -27 -30 -24 0 11 -79 -74 -127 -136 -24 -30 -48 -61 -53 -67
-6 -7 -8 -13 -5 -13 3 0 -8 -20 -25 -45 -17 -25 -28 -45 -24 -45 4 0 0 -8 -8
-17 -16 -19 -33 -62 -30 -75 1 -5 -3 -8 -8 -8 -6 0 -10 -6 -10 -14 0 -7 -9
-34 -20 -58 -11 -25 -22 -56 -24 -69 -3 -13 -5 -24 -6 -24 -2 0 -11 -38 -12
-52 -1 -7 -5 -13 -10 -13 -4 0 -6 -10 -4 -22 2 -13 -1 -29 -7 -36 -5 -7 -7
-15 -4 -18 3 -3 1 -18 -5 -33 -5 -14 -12 -48 -14 -76 -8 -106 -13 -147 -17
-152 -3 -2 -1 -18 3 -34 5 -16 5 -29 0 -29 -8 0 -3 -90 5 -99 3 -2 0 -10 -6
-18 -6 -7 -8 -13 -3 -13 5 0 9 -15 10 -32 2 -72 9 -138 14 -138 3 0 7 -17 8
-37 2 -21 6 -40 10 -43 4 -3 8 -16 9 -30 4 -51 8 -70 13 -70 3 0 11 -19 17
-42 7 -24 20 -61 29 -83 10 -22 18 -42 19 -45 4 -16 41 -86 48 -91 5 -3 8 -10
8 -15 -1 -5 6 -17 14 -27 8 -9 15 -24 15 -33 0 -8 5 -12 10 -9 6 3 10 1 10 -5
0 -7 10 -26 22 -43 13 -18 23 -35 23 -39 0 -3 11 -19 25 -35 13 -15 24 -30 23
-33 -1 -3 7 -16 18 -30 10 -14 35 -46 54 -72 20 -27 40 -48 45 -48 6 0 9 -4 8
-8 -4 -11 49 -72 56 -65 3 4 6 1 6 -6 0 -12 155 -171 167 -171 3 0 18 -13 33
-30 15 -16 31 -30 35 -30 4 0 15 -8 24 -18 9 -10 24 -21 34 -25 10 -4 15 -12
12 -17 -4 -6 -3 -10 2 -8 11 2 73 -35 73 -44 0 -5 7 -8 15 -8 8 0 15 -4 15 -9
0 -5 8 -12 18 -15 10 -4 27 -14 38 -24 11 -9 35 -25 53 -34 24 -13 12 2 -46
61 -87 87 -171 179 -173 189 0 4 -19 31 -40 60 -22 29 -40 57 -40 62 0 6 -4
10 -10 10 -5 0 -10 7 -10 15 0 7 -8 19 -17 24 -10 6 -14 11 -10 11 4 0 -8 29
-27 63 -20 35 -33 67 -29 70 3 4 1 7 -5 7 -6 0 -16 17 -23 38 -6 20 -16 43
-22 50 -5 6 -6 12 -1 12 4 0 3 5 -4 12 -7 7 -12 20 -12 29 0 10 -5 30 -12 46
-16 39 -24 75 -32 139 -1 11 -5 24 -7 30 -3 5 -5 24 -4 42 1 17 -3 32 -7 32
-5 0 -4 9 2 20 6 11 7 20 3 20 -5 0 -8 22 -8 50 0 27 4 50 8 50 4 0 3 9 -3 20
-6 11 -7 20 -3 20 5 0 9 15 10 33 1 39 8 79 23 132 6 22 13 51 16 65 3 13 8
27 12 30 4 3 8 12 10 20 5 24 65 145 74 148 4 2 8 10 8 18 0 8 5 14 10 14 6 0
10 5 10 11 0 8 52 82 70 99 3 3 16 18 28 34 12 16 22 25 22 20 0 -5 9 5 20 21
11 17 20 27 20 23 0 -4 21 13 46 38 26 24 52 44 59 44 7 0 15 7 19 15 3 8 9
14 13 13 13 -4 103 26 103 34 0 4 7 5 15 2 8 -4 15 -1 15 5 0 6 8 11 18 11 9
0 26 7 36 15 10 8 23 12 27 9 5 -3 9 -1 9 5 0 6 13 17 28 25 46 24 128 107
161 164 17 28 28 52 25 52 -2 0 1 10 8 23 15 27 17 46 17 122 0 33 0 68 0 78
0 9 -4 17 -8 17 -5 0 -11 14 -15 32 -17 87 -169 249 -248 265 -16 3 -28 9 -28
13 0 8 -35 19 -80 26 -46 7 -55 10 -67 17 -8 5 -13 3 -13 -3 0 -6 -5 -8 -12
-4 -17 11 -108 11 -108 1z"/>
<path d="M6052 4927 c9 -44 19 -128 22 -187 1 -20 5 -41 10 -48 4 -7 2 -12 -4
-12 -6 0 -8 -5 -3 -12 11 -18 12 -58 1 -64 -4 -3 -5 -11 -1 -17 11 -17 10 -31
-2 -39 -6 -5 -5 -8 3 -8 7 0 10 -5 6 -11 -4 -6 -8 -39 -9 -73 -5 -96 -16 -181
-25 -184 -5 -2 -6 -10 -4 -17 3 -8 2 -20 -2 -27 -5 -7 -9 -22 -11 -33 -2 -21
-10 -58 -13 -62 -2 -2 -4 -7 -5 -13 -1 -5 -3 -11 -5 -12 -1 -2 -3 -10 -5 -18
-2 -8 -11 -33 -21 -55 -10 -22 -18 -43 -18 -46 -2 -13 -71 -144 -78 -147 -5
-2 -8 -8 -8 -13 0 -11 -15 -31 -42 -57 -10 -9 -18 -22 -18 -29 0 -6 -8 -17
-17 -22 -10 -6 -15 -11 -11 -11 3 0 -15 -21 -42 -47 -64 -64 -120 -115 -120
-109 0 3 -12 -6 -27 -20 -14 -13 -28 -22 -31 -19 -3 2 -13 -5 -23 -17 -11 -11
-19 -18 -19 -15 0 4 -24 -7 -54 -23 -29 -16 -56 -27 -60 -23 -3 3 -6 1 -6 -5
0 -7 -9 -12 -20 -12 -11 0 -20 -5 -20 -11 0 -5 -4 -7 -10 -4 -5 3 -18 1 -28
-4 -11 -6 -32 -13 -48 -16 -41 -8 -59 -13 -59 -15 0 -1 -18 -4 -40 -5 -22 -2
-53 -7 -70 -11 -46 -10 -175 -10 -175 0 0 5 -3 7 -6 3 -3 -3 -21 3 -40 13 -18
11 -36 15 -39 10 -3 -5 -17 -3 -31 5 -15 7 -35 12 -45 10 -11 -2 -19 -1 -19 4
0 7 -177 6 -215 -2 -11 -2 -33 -9 -50 -16 -38 -15 -48 -18 -58 -20 -9 -1 -29
-16 -68 -53 -16 -14 -29 -24 -29 -20 0 4 -12 -11 -27 -33 -14 -22 -29 -42 -33
-45 -12 -10 -41 -100 -35 -110 3 -5 2 -10 -2 -10 -5 0 -10 -17 -12 -37 -1 -21
-3 -53 -5 -71 -1 -18 1 -35 6 -38 5 -3 6 -10 2 -15 -3 -5 0 -17 8 -26 11 -14
11 -16 -1 -8 -11 6 -12 5 -5 -6 4 -8 10 -23 11 -34 2 -10 7 -22 11 -25 4 -3 9
-14 10 -25 2 -11 7 -22 11 -25 3 -3 13 -18 21 -35 26 -51 129 -165 149 -165 6
0 11 -5 11 -11 0 -5 4 -8 9 -5 5 3 12 -1 15 -10 3 -8 10 -12 16 -9 5 3 10 2
10 -4 0 -9 40 -27 49 -22 2 2 7 -2 11 -9 4 -6 13 -13 21 -14 8 -2 21 -6 29 -9
37 -16 114 -36 122 -31 4 3 8 1 8 -4 0 -4 16 -8 35 -7 19 1 35 -1 35 -4 0 -4
47 -7 105 -7 58 0 105 3 105 7 0 4 14 5 30 4 17 -1 30 0 30 4 0 6 17 10 58 13
6 1 12 4 12 8 0 3 9 7 20 8 43 4 50 6 50 14 0 4 9 8 20 8 11 0 20 5 20 11 0 5
4 8 9 5 4 -3 17 1 27 9 10 8 27 15 37 15 9 0 17 5 17 10 0 6 3 9 8 8 4 -2 32
13 62 32 30 19 58 33 63 32 4 -1 7 2 7 8 0 5 7 10 15 10 8 0 15 5 15 10 0 6 8
14 17 17 16 6 25 13 75 56 12 9 25 17 30 17 5 0 6 5 3 10 -3 6 -1 10 6 10 6 0
22 11 35 25 13 14 28 25 34 25 5 0 10 4 10 8 0 5 28 38 63 74 64 68 93 104
137 167 14 20 28 38 33 39 4 2 7 10 7 18 0 8 3 14 8 14 4 0 19 21 32 48 14 26
28 49 31 52 3 3 14 23 25 45 10 22 21 42 24 45 3 3 6 12 6 20 1 26 16 50 27
43 5 -3 7 -1 4 4 -4 6 0 27 8 47 8 20 12 36 9 36 -4 0 -2 6 4 13 6 7 14 28 17
47 3 19 10 37 16 38 5 2 6 8 3 13 -3 6 0 17 8 26 11 14 11 16 -2 8 -13 -7 -13
-6 -2 7 7 9 12 20 10 24 -1 5 2 34 7 64 10 64 13 100 14 153 1 27 5 36 14 31
10 -6 10 -4 0 7 -7 7 -13 17 -13 22 0 4 6 5 13 1 9 -6 9 -4 -1 8 -10 13 -10
17 0 21 10 4 10 8 -2 16 -8 6 -10 11 -5 11 6 0 11 9 12 20 1 13 -2 18 -9 14
-7 -5 -8 -2 -2 7 13 22 14 43 1 51 -9 6 -9 8 0 8 6 0 11 13 11 30 -1 16 -5 27
-10 24 -5 -4 -4 3 3 14 10 16 10 23 0 35 -8 11 -9 17 -1 22 8 5 8 11 -1 21 -6
7 -9 21 -5 29 3 8 1 15 -4 15 -6 0 -10 5 -10 11 0 5 5 7 12 3 7 -4 8 -3 4 4
-12 19 -24 88 -29 165 -1 15 -5 27 -9 27 -3 0 -5 11 -3 25 1 14 -1 25 -4 25
-4 0 -7 8 -7 18 -1 27 -8 46 -19 54 -6 5 -5 8 4 8 11 0 11 3 1 15 -7 8 -9 15
-5 15 4 0 3 6 -3 13 -6 7 -13 24 -15 37 -2 14 -7 33 -11 42 -4 9 -5 22 -1 28
3 5 0 13 -8 16 -13 5 -17 16 -18 57 0 9 -4 17 -10 17 -5 0 -9 9 -9 19 0 11 -5
23 -10 26 -6 4 -8 10 -5 15 3 5 0 12 -6 15 -5 4 -8 13 -5 20 2 7 -1 16 -8 18
-10 4 -11 -4 -4 -36z"/>
<path d="M1630 4611 c0 -6 4 -13 10 -16 6 -3 7 1 4 9 -7 18 -14 21 -14 7z"/>
<path d="M3078 3454 c-2 -1 -16 -4 -33 -7 -66 -12 -96 -20 -101 -28 -3 -5 -14
-9 -24 -9 -10 0 -20 -3 -22 -8 -1 -4 -24 -21 -50 -38 -26 -17 -45 -34 -41 -38
3 -3 -1 -6 -10 -6 -10 0 -17 -3 -17 -7 0 -5 -16 -25 -35 -47 -19 -21 -35 -44
-35 -51 0 -7 -3 -15 -7 -17 -12 -5 -54 -93 -56 -116 -1 -12 -4 -22 -7 -22 -4
0 -7 -6 -8 -12 -1 -7 -4 -33 -7 -58 -9 -77 -11 -180 -4 -192 5 -7 3 -18 -3
-25 -6 -8 -7 -13 -1 -13 6 0 9 -11 8 -25 -2 -14 0 -25 5 -25 4 0 6 -9 3 -20
-3 -11 -1 -20 4 -20 5 0 10 -10 11 -22 2 -25 6 -40 18 -78 4 -14 6 -27 5 -29
-2 -2 1 -7 6 -10 9 -6 36 -63 33 -69 -1 -2 9 -12 21 -23 12 -10 19 -19 15 -19
-7 0 25 -50 49 -77 5 -6 21 -25 34 -43 43 -56 176 -182 184 -174 3 3 8 -4 12
-15 3 -12 11 -19 16 -16 5 4 9 3 9 -2 0 -4 23 -21 50 -38 27 -16 50 -33 50
-37 0 -5 6 -8 13 -8 7 0 22 -8 33 -17 11 -10 26 -19 34 -21 8 -2 22 -9 30 -16
17 -15 108 -59 112 -55 2 2 19 -5 38 -15 61 -32 69 -36 85 -36 9 0 14 -4 11
-9 -4 -5 2 -8 11 -6 10 1 24 -2 31 -8 6 -5 12 -6 12 -2 0 4 7 2 15 -5 9 -7 18
-10 22 -6 3 3 15 -2 26 -11 15 -13 18 -14 12 -3 -6 12 -5 13 6 3 7 -7 26 -13
41 -13 15 0 28 -3 28 -7 0 -8 13 -10 85 -14 19 -1 35 -5 35 -8 0 -9 78 -14
210 -14 130 0 220 5 220 14 0 3 10 5 23 6 12 0 33 3 47 6 14 3 36 8 49 11 12
3 29 10 37 17 11 9 14 8 14 -2 0 -11 2 -11 10 1 5 8 10 12 10 8 0 -4 11 -3 25
2 27 10 71 21 93 22 6 1 12 6 12 11 0 6 3 8 6 4 4 -3 22 0 41 8 19 8 39 13 43
10 5 -3 11 -1 15 5 3 5 24 14 45 20 22 6 40 15 40 21 0 6 4 8 8 5 4 -2 21 1
37 9 17 7 48 21 70 31 22 10 42 20 45 24 3 3 29 16 58 29 28 14 52 28 52 33 0
5 5 6 10 3 6 -3 10 -1 10 4 0 6 6 11 13 11 7 0 23 9 34 19 12 11 23 18 26 15
3 -3 17 6 32 20 15 14 40 31 56 38 16 7 29 16 29 19 0 4 25 24 55 44 30 21 55
42 55 47 0 5 5 6 10 3 6 -3 10 -2 10 4 0 6 12 18 28 26 26 16 22 16 -28 4 -8
-2 -22 -11 -30 -19 -8 -8 -22 -16 -30 -18 -8 -2 -36 -14 -61 -27 -26 -13 -49
-21 -53 -18 -3 4 -6 0 -6 -7 0 -7 -3 -10 -7 -7 -3 4 -12 2 -20 -4 -7 -6 -13
-8 -13 -4 0 5 -8 0 -19 -9 -10 -9 -22 -16 -27 -15 -5 1 -12 0 -16 -1 -5 -1
-11 -3 -15 -4 -5 -1 -35 -10 -68 -21 -33 -10 -68 -19 -77 -21 -10 -1 -19 -2
-20 -3 -6 -5 -54 -13 -75 -14 -12 -1 -20 -4 -17 -9 2 -4 -11 -5 -31 -4 -19 2
-35 -1 -35 -6 0 -6 -6 -5 -15 2 -11 9 -15 9 -15 1 0 -7 -5 -9 -10 -6 -6 4 -17
1 -25 -5 -8 -7 -15 -8 -15 -3 0 11 -50 10 -68 -1 -7 -4 -12 -2 -12 5 0 10 -3
10 -12 1 -8 -8 -17 -8 -31 -1 -15 8 -18 8 -12 -1 5 -9 2 -10 -11 -3 -11 5 -37
9 -59 8 -22 0 -43 5 -47 10 -5 6 -12 4 -18 -5 -7 -10 -10 -11 -10 -2 0 8 -9
11 -25 8 -14 -3 -25 -1 -25 3 0 3 -8 8 -17 9 -21 2 -57 10 -60 12 -2 2 -6 3
-10 4 -64 15 -113 32 -113 40 0 5 -3 7 -6 3 -7 -6 -61 19 -149 72 -66 39 -70
41 -121 88 -19 17 -51 45 -71 62 -20 17 -33 31 -29 31 4 0 -4 10 -17 23 -13
12 -43 51 -67 87 -24 36 -48 68 -54 72 -6 4 -7 8 -3 8 5 0 1 10 -7 22 -9 12
-16 30 -16 40 0 10 -4 18 -9 18 -8 0 -20 23 -27 53 -1 4 -3 10 -4 15 -1 4 -2
10 -1 15 0 4 -3 7 -8 7 -5 0 -12 19 -16 41 -12 68 -12 99 -1 99 7 0 8 3 1 8
-5 4 -11 32 -12 62 -2 58 -6 85 -16 110 -3 8 -11 36 -18 63 -7 26 -17 47 -22
47 -4 0 -5 5 -2 10 3 6 1 10 -4 10 -6 0 -10 3 -9 8 4 12 -34 64 -77 107 -41
41 -105 82 -105 68 0 -4 -5 0 -11 9 -5 10 -16 15 -24 12 -8 -4 -15 -2 -15 3 0
5 -15 10 -32 12 -56 5 -118 8 -120 5z"/>
</g>
</svg>
